<?xml version="1.0" encoding="UTF-8"?>
<!DOCTYPE svg PUBLIC "-//W3C//DTD SVG 1.1//EN" "http://www.w3.org/Graphics/SVG/1.1/DTD/svg11.dtd">
<svg xmlns="http://www.w3.org/2000/svg" version="1.1" width="20000px" height="3667px" style="shape-rendering:geometricPrecision; text-rendering:geometricPrecision; image-rendering:optimizeQuality; fill-rule:evenodd; clip-rule:evenodd" xmlns:xlink="http://www.w3.org/1999/xlink">
<g><path style="opacity:0.997" fill="#fdfdfd" d="M 13573.5,195.5 C 13596.5,209.337 13619.2,223.67 13641.5,238.5C 13521.8,410.781 13419.6,593.781 13335,787.5C 13258.1,969.599 13201.4,1157.93 13165,1352.5C 13099,1699.64 13089.7,2048.3 13137,2398.5C 13161.5,2575.89 13200.8,2749.89 13255,2920.5C 13316.7,3105.52 13396.4,3281.85 13494,3449.5C 13533.3,3517.03 13574.8,3583.2 13618.5,3648C 13602.1,3649.16 13585.6,3649.66 13569,3649.5C 13552.8,3649.33 13536.7,3649.17 13520.5,3649C 13475.5,3584.17 13433.7,3517.34 13395,3448.5C 13308.9,3285.49 13237.5,3116.16 13181,2940.5C 13137.9,2806.08 13101.9,2669.74 13073,2531.5C 13038.2,2342.77 13021.4,2152.44 13022.5,1960.5C 13021.3,1764.79 13038.8,1570.79 13075,1378.5C 13116.8,1179.98 13173.8,985.984 13246,796.5C 13289,687.507 13337.7,581.174 13392,477.5C 13407.3,449.909 13422.9,422.576 13439,395.5C 13477.7,334.814 13517.3,274.814 13558,215.5C 13563.4,208.958 13568.5,202.291 13573.5,195.5 Z"/></g>
<g><path style="opacity:0.997" fill="#fdfdfd" d="M 15442.5,195.5 C 15445.8,198.043 15448.6,201.043 15451,204.5C 15493.8,265.468 15535.2,327.468 15575,390.5C 15633.4,489.674 15685.4,592.674 15731,699.5C 15792.3,842.786 15843.3,989.786 15884,1140.5C 15949,1364.24 15985,1592.57 15992,1825.5C 16000.5,2032.56 15989.5,2238.56 15959,2443.5C 15940.5,2558.02 15915.1,2671.02 15883,2782.5C 15834.2,2963.23 15770.2,3138.23 15691,3307.5C 15656.9,3381.11 15619.2,3452.44 15578,3521.5C 15550.5,3564.26 15522.7,3606.76 15494.5,3649C 15462.2,3649.67 15429.8,3649.67 15397.5,3649C 15397,3648.59 15396.7,3648.09 15396.5,3647.5C 15509.7,3481.18 15606.5,3304.85 15687,3118.5C 15758.1,2948.67 15811.4,2773.34 15847,2592.5C 15921.7,2216.6 15929.7,1839.26 15871,1460.5C 15842.4,1276.56 15797.1,1096.89 15735,921.5C 15677.2,765.515 15606.8,615.848 15524,472.5C 15500.3,432.732 15476.3,393.066 15452,353.5C 15427,314.823 15401.5,276.49 15375.5,238.5C 15397.7,223.907 15420,209.573 15442.5,195.5 Z"/></g>
<g><path style="opacity:0.999" fill="#fefefe" d="M 17264.5,583.5 C 17497.2,579.86 17726.6,606.026 17952.5,662C 18026.6,680.365 18099.9,701.365 18172.5,725C 18173,725.561 18173.4,726.228 18173.5,727C 18157.2,778.087 18140.4,828.92 18123,879.5C 17910.6,813.619 17693.4,772.785 17471.5,757C 17401.9,752.465 17332.2,751.132 17262.5,753C 16974.3,765.015 16738.2,880.515 16554,1099.5C 16398,1287.73 16310,1504.73 16290,1750.5C 16253.7,2175.59 16401.9,2519.43 16734.5,2782C 16939.3,2938.94 17171.8,3015.77 17432,3012.5C 17590.4,3013.37 17746.9,2996.54 17901.5,2962C 17983.3,2942.96 18062.8,2917.12 18140,2884.5C 18159.9,2928.35 18179.3,2972.35 18198,3016.5C 18127.8,3056.34 18053.7,3086.84 17975.5,3108C 17748.6,3169.16 17517.9,3191.49 17283.5,3175C 17006.2,3148.78 16761.9,3046.78 16550.5,2869C 16220.8,2590.22 16067.3,2233.72 16090,1799.5C 16097.3,1625.88 16135.6,1459.55 16205,1300.5C 16296.4,1100.35 16430.3,933.85 16606.5,801C 16760.7,689.896 16932.7,621.562 17122.5,596C 17169.8,589.744 17217.1,585.578 17264.5,583.5 Z"/></g>
<g><path style="opacity:1" fill="#fefefe" d="M 12722.5,2802.5 C 12722.6,2803.04 12722.9,2803.38 12723.5,2803.5C 12724.8,2801.03 12724.8,2798.69 12723.5,2796.5C 12716.7,2706.12 12712.8,2615.45 12712,2524.5C 12711.3,1891.5 12711.3,1258.5 12712,625.5C 12772.7,625.5 12833.3,625.5 12894,625.5C 12894.8,1470.4 12894.7,2315.24 12893.5,3160C 12864.5,3160.67 12835.5,3160.67 12806.5,3160C 12804.3,3157.83 12802.2,3155.67 12800,3153.5C 12214.7,2478.54 11629,1803.87 11043,1129.5C 11000.2,1079.87 10958.4,1029.54 10917.5,978.5C 10916.5,977.249 10915.9,977.582 10915.5,979.5C 10915.5,980.416 10915.9,981.083 10916.5,981.5C 10917.6,996.423 10918.5,1011.42 10919,1026.5C 10921.4,1124.16 10923.8,1221.83 10926,1319.5C 10926.7,1925.83 10926.7,2532.17 10926,3138.5C 10865.6,3139.66 10805.1,3139.83 10744.5,3139C 10743.9,3138.62 10743.6,3138.12 10743.5,3137.5C 10744.5,2293.67 10744.8,1449.67 10744.5,605.5C 10773.3,605.831 10802,605.498 10830.5,604.5C 10830.4,604.062 10830.6,603.728 10831,603.5C 10834.3,607.8 10838,611.8 10842,615.5C 11387.6,1245.46 11933.6,1875.13 12480,2504.5C 12562.9,2602.26 12643.8,2701.59 12722.5,2802.5 Z"/></g>
<g><path style="opacity:0.753" fill="#d9d9d9" d="M 10830.5,604.5 C 10802,605.498 10773.3,605.831 10744.5,605.5C 10744.8,1449.67 10744.5,2293.67 10743.5,3137.5C 10743.5,2293.17 10743.5,1448.83 10743.5,604.5C 10772.5,604.5 10801.5,604.5 10830.5,604.5 Z"/></g>
<g><path style="opacity:1" fill="#d3b1fe" d="M 619.5,633.5 C 1005.5,633.5 1391.5,633.5 1777.5,633.5C 1777.5,681.833 1777.5,730.167 1777.5,778.5C 1446.67,778.167 1116,778.5 785.5,779.5C 785.5,1085.83 785.5,1392.17 785.5,1698.5C 1085,1698.17 1384.33,1698.5 1683.5,1699.5C 1384.17,1699.33 1084.83,1699.5 785.5,1700C 1084.5,1700.5 1383.5,1700.67 1682.5,1700.5C 1682.5,1747.17 1682.5,1793.83 1682.5,1840.5C 1383.5,1840.33 1084.5,1840.5 785.5,1841C 1084.83,1841.5 1384.17,1841.67 1683.5,1841.5C 1384.33,1842.5 1085,1842.83 785.5,1842.5C 785.5,2223.5 785.5,2604.5 785.5,2985.5C 1128.67,2986.5 1472,2986.83 1815.5,2986.5C 1815.5,3034.5 1815.5,3082.5 1815.5,3130.5C 1416.83,3130.5 1018.17,3130.5 619.5,3130.5C 619.5,2298.17 619.5,1465.83 619.5,633.5 Z"/></g>
<g><path style="opacity:0.999" fill="#fefefe" d="M 13490.5,634.5 C 13563.7,634.169 13636.9,634.502 13710,635.5C 13954.1,1060.89 14198.5,1486.22 14443,1911.5C 14474.7,1968.13 14505.3,2025.47 14535,2083.5C 14553.1,2044.99 14572.4,2007.32 14593,1970.5C 14847.9,1526.16 15102.2,1081.16 15356,635.5C 15425.8,634.169 15495.6,634.169 15565.5,635.5C 15249.5,1175.52 14933.7,1715.19 14618,2254.5C 14617.8,2552.4 14617.3,2850.24 14616.5,3148C 14555.9,3148.83 14495.4,3148.66 14435,3147.5C 14434.7,2847.5 14434.3,2547.5 14434,2247.5C 14120.7,1711.73 13806.7,1176.07 13492,640.5C 13491.7,638.671 13490.9,637.171 13489.5,636C 13490.1,635.617 13490.4,635.117 13490.5,634.5 Z"/></g>
<g><path style="opacity:0.502" fill="#d9bcfd" d="M 618.5,633.5 C 1005,632.5 1391.67,632.167 1778.5,632.5C 1778.5,681.5 1778.5,730.5 1778.5,779.5C 1447.5,779.5 1116.5,779.5 785.5,779.5C 1116,778.5 1446.67,778.167 1777.5,778.5C 1777.5,730.167 1777.5,681.833 1777.5,633.5C 1391.5,633.5 1005.5,633.5 619.5,633.5C 619.167,633.5 618.833,633.5 618.5,633.5 Z"/></g>
<g><path style="opacity:1" fill="#d3b1ff" d="M 3962.5,1003.5 C 3961.5,1711.76 3961.17,2420.76 3961.5,3130.5C 3908.83,3130.5 3856.17,3130.5 3803.5,3130.5C 3803.83,2379.67 3803.5,1629 3802.5,878.5C 3802.92,877.778 3803.58,877.278 3804.5,877C 4000.65,856.633 4197.31,847.633 4394.5,850C 4508.33,852.96 4617,877.96 4720.5,925C 4789.05,957.508 4850.55,1000.01 4905,1052.5C 4972,1123.48 5015.66,1207.14 5036,1303.5C 5055.61,1395.97 5058.61,1488.97 5045,1582.5C 5023.96,1702.25 4971.96,1805.91 4889,1893.5C 4832.1,1952.11 4768.6,2001.94 4698.5,2043C 4547.09,2130.8 4383.75,2179.46 4208.5,2189C 4167.53,2191.13 4126.53,2191.96 4085.5,2191.5C 4085.5,2154.17 4085.5,2116.83 4085.5,2079.5C 4222.42,2083.85 4354.42,2060.68 4481.5,2010C 4570.65,1972.63 4650.98,1921.97 4722.5,1858C 4829.04,1757.98 4882.38,1634.48 4882.5,1487.5C 4883.26,1417.62 4872.42,1349.62 4850,1283.5C 4817.7,1195.21 4760.87,1127.71 4679.5,1081C 4606.08,1039.08 4527.42,1012.08 4443.5,1000C 4388.47,991.787 4333.13,988.287 4277.5,989.5C 4172.26,990.115 4067.26,994.781 3962.5,1003.5 Z"/></g>
<g><path style="opacity:1" fill="#d3b1ff" d="M 6915.5,3131.5 C 6863,3130.5 6810.34,3130.17 6757.5,3130.5C 6757.67,2378.5 6757.5,1626.5 6757,874.5C 6756.5,1626.83 6756.33,2379.17 6756.5,3131.5C 6755.5,2379 6755.17,1626.33 6755.5,873.5C 6886.65,862.776 7017.98,855.276 7149.5,851C 7202.16,849.583 7254.83,849.249 7307.5,850C 7408.5,852.533 7506.5,870.866 7601.5,905C 7884.85,1015.34 8019.68,1223.17 8006,1528.5C 7998.75,1644.57 7964.08,1751.57 7902,1849.5C 7841.61,1943.6 7769.11,2027.76 7684.5,2102C 7663.24,2119.77 7641.57,2136.93 7619.5,2153.5C 7768.09,2352.66 7919.59,2549.66 8074,2744.5C 8147.13,2839.41 8235.63,2916.25 8339.5,2975C 8410.21,3013.57 8485.54,3037.9 8565.5,3048C 8566.13,3049.91 8566.46,3051.91 8566.5,3054C 8565.2,3088.18 8563.87,3122.35 8562.5,3156.5C 8489.31,3155.83 8416.97,3147.66 8345.5,3132C 8266.19,3113.34 8194.19,3079.67 8129.5,3031C 8059.78,2977.61 7997.61,2916.45 7943,2847.5C 7866.97,2752.43 7792.64,2656.1 7720,2558.5C 7637.11,2445.95 7554.61,2333.11 7472.5,2220C 7286.99,2219.48 7101.66,2213.65 6916.5,2202.5C 6916.83,2512.33 6916.5,2822 6915.5,3131.5 Z M 7170.5,989.5 C 7209.83,989.333 7249.17,989.5 7288.5,990C 7375.05,992.444 7458.72,1009.11 7539.5,1040C 7737.76,1120.22 7836.43,1267.72 7835.5,1482.5C 7836.18,1630.98 7791.01,1763.32 7700,1879.5C 7656.72,1934.45 7607.22,1982.95 7551.5,2025C 7518.34,2049.08 7482,2067.08 7442.5,2079C 7429.35,2082.41 7416.02,2084.75 7402.5,2086C 7240.29,2086.7 7078.29,2081.2 6916.5,2069.5C 6916.33,1714.17 6916.5,1358.83 6917,1003.5C 7001.49,996.751 7085.99,992.085 7170.5,989.5 Z"/></g>
<g><path style="opacity:1" fill="#d3b1ff" d="M 3604.5,3129.5 C 3541.07,3130.16 3477.74,3130.83 3414.5,3131.5C 3197.69,2784.56 2980.86,2437.56 2764,2090.5C 2538.31,2437.91 2312.14,2784.91 2085.5,3131.5C 2026.93,3130.83 1968.26,3130.16 1909.5,3129.5C 2167.49,2738.86 2425.49,2348.2 2683.5,1957.5C 2454.25,1593.34 2225.25,1229 1996.5,864.5C 2061.73,863.169 2126.9,863.169 2192,864.5C 2392.61,1191.59 2593.77,1518.25 2795.5,1844.5C 3006.53,1518.12 3217.19,1191.46 3427.5,864.5C 3485.5,863.5 3543.5,863.167 3601.5,863.5C 3601.65,864.552 3601.48,865.552 3601,866.5C 3359.12,1235.76 3117.62,1605.26 2876.5,1975C 3119.05,2359.93 3361.71,2744.76 3604.5,3129.5 Z"/></g>
<g><path style="opacity:0.502" fill="#d2aeff" d="M 5458.5,1003.5 C 5458.5,1003.17 5458.5,1002.83 5458.5,1002.5C 5757.33,1001.5 6056.33,1001.17 6355.5,1001.5C 6355.5,955.833 6355.5,910.167 6355.5,864.5C 6003.5,864.5 5651.5,864.5 5299.5,864.5C 5299.5,1619.83 5299.5,2375.17 5299.5,3130.5C 5663.17,3130.5 6026.83,3130.5 6390.5,3130.5C 6390.5,3082.5 6390.5,3034.5 6390.5,2986.5C 6079.6,2986.83 5768.76,2986.5 5458,2985.5C 5457.17,2644.76 5457.33,2304.76 5458.5,1965.5C 5458.33,2305.17 5458.5,2644.83 5459,2984.5C 5770.1,2985.5 6081.26,2985.83 6392.5,2985.5C 6392.5,3034.17 6392.5,3082.83 6392.5,3131.5C 6027.83,3131.5 5663.17,3131.5 5298.5,3131.5C 5298.5,2375.5 5298.5,1619.5 5298.5,863.5C 5651.5,863.5 6004.5,863.5 6357.5,863.5C 6357.83,910.072 6357.5,956.572 6356.5,1003C 6057.17,1003.5 5757.83,1003.67 5458.5,1003.5 Z"/></g>
<g><path style="opacity:1" fill="#d3b1fe" d="M 5458.5,1002.5 C 5457.33,1277.67 5457.17,1553 5458,1828.5C 5728.1,1829.5 5998.26,1829.83 6268.5,1829.5C 6268.17,1874.34 6268.5,1919 6269.5,1963.5C 5999.26,1964.17 5728.93,1964.83 5458.5,1965.5C 5457.33,2304.76 5457.17,2644.76 5458,2985.5C 5768.76,2986.5 6079.6,2986.83 6390.5,2986.5C 6390.5,3034.5 6390.5,3082.5 6390.5,3130.5C 6026.83,3130.5 5663.17,3130.5 5299.5,3130.5C 5299.5,2375.17 5299.5,1619.83 5299.5,864.5C 5651.5,864.5 6003.5,864.5 6355.5,864.5C 6355.5,910.167 6355.5,955.833 6355.5,1001.5C 6056.33,1001.17 5757.33,1001.5 5458.5,1002.5 Z"/></g>
<g><path style="opacity:1" fill="#d3b1ff" d="M 8672.5,3131.5 C 8671.66,3131.16 8671.33,3130.49 8671.5,3129.5C 8672.5,2374.67 8672.83,1619.67 8672.5,864.5C 8725.17,864.5 8777.83,864.5 8830.5,864.5C 8830.5,1619.83 8830.5,2375.17 8830.5,3130.5C 8777.66,3130.17 8725,3130.5 8672.5,3131.5 Z"/></g>
<g><path style="opacity:1" fill="#d6b5fe" d="M 8672.5,3131.5 C 8725,3130.5 8777.66,3130.17 8830.5,3130.5C 8830.5,2375.17 8830.5,1619.83 8830.5,864.5C 8777.83,864.5 8725.17,864.5 8672.5,864.5C 8672.83,1619.67 8672.5,2374.67 8671.5,3129.5C 8671.5,2374.17 8671.5,1618.83 8671.5,863.5C 8725.17,863.5 8778.83,863.5 8832.5,863.5C 8832.5,1619.5 8832.5,2375.5 8832.5,3131.5C 8779.17,3131.5 8725.83,3131.5 8672.5,3131.5 Z"/></g>
<g><path style="opacity:1" fill="#d3b1ff" d="M 9412.5,1828.5 C 9682,1829.5 9951.67,1829.83 10221.5,1829.5C 10221.5,1874.17 10221.5,1918.83 10221.5,1963.5C 9951.67,1963.17 9682,1963.5 9412.5,1964.5C 9412.5,2304.83 9412.5,2645.17 9412.5,2985.5C 9723.5,2985.5 10034.5,2985.5 10345.5,2985.5C 10345.5,3034.17 10345.5,3082.83 10345.5,3131.5C 9980.83,3131.5 9616.17,3131.5 9251.5,3131.5C 9251.5,2375.5 9251.5,1619.5 9251.5,863.5C 9604.5,863.5 9957.5,863.5 10310.5,863.5C 10310.5,910.167 10310.5,956.833 10310.5,1003.5C 10011.2,1003.5 9711.83,1003.5 9412.5,1003.5C 9412.5,1278.5 9412.5,1553.5 9412.5,1828.5 Z"/></g>
<g><path style="opacity:1" fill="#d6b5fe" d="M 18685.5,1003.5 C 18984.2,1001.5 19283.2,1000.83 19582.5,1001.5C 19582.5,955.833 19582.5,910.167 19582.5,864.5C 19230.5,864.5 18878.5,864.5 18526.5,864.5C 18526.5,1619.83 18526.5,2375.17 18526.5,3130.5C 18525.8,3130.5 18525.5,3130.83 18525.5,3131.5C 18524.5,2375.67 18524.2,1619.67 18524.5,863.5C 18877.5,863.5 19230.5,863.5 19583.5,863.5C 19583.5,910.167 19583.5,956.833 19583.5,1003.5C 19284.2,1003.5 18984.8,1003.5 18685.5,1003.5 Z"/></g>
<g><path style="opacity:1" fill="#d3b1ff" d="M 18685.5,1003.5 C 18685.5,1278.5 18685.5,1553.5 18685.5,1828.5C 18955.5,1828.5 19225.5,1828.5 19495.5,1828.5C 19495.5,1873.5 19495.5,1918.5 19495.5,1963.5C 19225.3,1963.17 18955.3,1963.5 18685.5,1964.5C 18685.5,2304.83 18685.5,2645.17 18685.5,2985.5C 18996,2986.5 19306.7,2986.83 19617.5,2986.5C 19617.5,3034.5 19617.5,3082.5 19617.5,3130.5C 19253.8,3130.5 18890.2,3130.5 18526.5,3130.5C 18526.5,2375.17 18526.5,1619.83 18526.5,864.5C 18878.5,864.5 19230.5,864.5 19582.5,864.5C 19582.5,910.167 19582.5,955.833 19582.5,1001.5C 19283.2,1000.83 18984.2,1001.5 18685.5,1003.5 Z"/></g>
<g><path style="opacity:1" fill="#cfa9fe" d="M 6915.5,3131.5 C 6862.5,3131.5 6809.5,3131.5 6756.5,3131.5C 6756.33,2379.17 6756.5,1626.83 6757,874.5C 6757.5,1626.5 6757.67,2378.5 6757.5,3130.5C 6810.34,3130.17 6863,3130.5 6915.5,3131.5 Z"/></g>
<g><path style="opacity:0.753" fill="#a1a1a1" d="M 10917.5,978.5 C 10916.6,979.209 10916.3,980.209 10916.5,981.5C 10915.9,981.083 10915.5,980.416 10915.5,979.5C 10915.9,977.582 10916.5,977.249 10917.5,978.5 Z"/></g>
<g><path style="opacity:0.502" fill="#cfa9fe" d="M 3802.5,878.5 C 3803.5,1629 3803.83,2379.67 3803.5,3130.5C 3856.17,3130.5 3908.83,3130.5 3961.5,3130.5C 3961.17,2420.76 3961.5,1711.76 3962.5,1003.5C 3962.5,1712.83 3962.5,2422.17 3962.5,3131.5C 3909.17,3131.5 3855.83,3131.5 3802.5,3131.5C 3802.5,2380.5 3802.5,1629.5 3802.5,878.5 Z"/></g>
<g><path style="opacity:0.503" fill="#cfa9ff" d="M 5458.5,1002.5 C 5458.5,1002.83 5458.5,1003.17 5458.5,1003.5C 5458.33,1278.17 5458.5,1552.83 5459,1827.5C 5729.1,1828.5 5999.26,1828.83 6269.5,1828.5C 6269.5,1873.5 6269.5,1918.5 6269.5,1963.5C 6268.5,1919 6268.17,1874.34 6268.5,1829.5C 5998.26,1829.83 5728.1,1829.5 5458,1828.5C 5457.17,1553 5457.33,1277.67 5458.5,1002.5 Z"/></g>
<g><path style="opacity:0.502" fill="#cfa9fe" d="M 9412.5,1828.5 C 9682.5,1828.5 9952.5,1828.5 10222.5,1828.5C 10222.8,1873.67 10222.5,1918.67 10221.5,1963.5C 10221.5,1918.83 10221.5,1874.17 10221.5,1829.5C 9951.67,1829.83 9682,1829.5 9412.5,1828.5 Z"/></g>
<g><path style="opacity:1" fill="#cfa9fe" d="M 1683.5,1699.5 C 1683.5,1746.83 1683.5,1794.17 1683.5,1841.5C 1384.17,1841.67 1084.83,1841.5 785.5,1841C 1084.5,1840.5 1383.5,1840.33 1682.5,1840.5C 1682.5,1793.83 1682.5,1747.17 1682.5,1700.5C 1383.5,1700.67 1084.5,1700.5 785.5,1700C 1084.83,1699.5 1384.17,1699.33 1683.5,1699.5 Z"/></g>
<g><path style="opacity:0.502" fill="#dabefd" d="M 10222.5,1828.5 C 10223.5,1873.66 10223.8,1919 10223.5,1964.5C 9953.17,1964.5 9682.83,1964.5 9412.5,1964.5C 9682,1963.5 9951.67,1963.17 10221.5,1963.5C 10222.5,1918.67 10222.8,1873.67 10222.5,1828.5 Z"/></g>
<g><path style="opacity:0.502" fill="#d9bcfd" d="M 19495.5,1828.5 C 19496.5,1873.66 19496.8,1919 19496.5,1964.5C 19226.2,1964.5 18955.8,1964.5 18685.5,1964.5C 18955.3,1963.5 19225.3,1963.17 19495.5,1963.5C 19495.5,1918.5 19495.5,1873.5 19495.5,1828.5 Z"/></g>
<g><path style="opacity:0.753" fill="#bababa" d="M 12723.5,2796.5 C 12724.8,2798.69 12724.8,2801.03 12723.5,2803.5C 12722.9,2803.38 12722.6,2803.04 12722.5,2802.5C 12723.5,2800.74 12723.8,2798.74 12723.5,2796.5 Z"/></g>
<g><path style="opacity:0.502" fill="#cfa9ff" d="M 1909.5,3129.5 C 1968.26,3130.16 2026.93,3130.83 2085.5,3131.5C 2026.49,3132.16 1967.82,3131.5 1909.5,3129.5 Z"/></g>
<g><path style="opacity:0.505" fill="#cfa9ff" d="M 3604.5,3129.5 C 3605.04,3129.56 3605.38,3129.89 3605.5,3130.5C 3541.84,3131.5 3478.17,3131.83 3414.5,3131.5C 3477.74,3130.83 3541.07,3130.16 3604.5,3129.5 Z"/></g>
<g><path style="opacity:0.502" fill="#d5b4ff" d="M 618.5,633.5 C 618.833,633.5 619.167,633.5 619.5,633.5C 619.5,1465.83 619.5,2298.17 619.5,3130.5C 1018.17,3130.5 1416.83,3130.5 1815.5,3130.5C 1815.5,3082.5 1815.5,3034.5 1815.5,2986.5C 1472,2986.83 1128.67,2986.5 785.5,2985.5C 1129.17,2985.5 1472.83,2985.5 1816.5,2985.5C 1816.5,3034.17 1816.5,3082.83 1816.5,3131.5C 1416.83,3131.5 1017.17,3131.5 617.5,3131.5C 617.167,2298.67 617.5,1466 618.5,633.5 Z"/></g>
<g><path style="opacity:0.502" fill="#cfa9ff" d="M 18685.5,2985.5 C 18996.5,2985.5 19307.5,2985.5 19618.5,2985.5C 19618.5,3034.17 19618.5,3082.83 19618.5,3131.5C 19254.2,3131.5 18889.8,3131.5 18525.5,3131.5C 18525.5,3130.83 18525.8,3130.5 18526.5,3130.5C 18890.2,3130.5 19253.8,3130.5 19617.5,3130.5C 19617.5,3082.5 19617.5,3034.5 19617.5,2986.5C 19306.7,2986.83 18996,2986.5 18685.5,2985.5 Z"/></g>
</svg>
